<?xml version="1.0" encoding="UTF-8" standalone="no"?>
<!-- Created with Inkscape (http://www.inkscape.org/) -->

<svg
   width="500"
   height="500"
   viewBox="0 0 132.29166 132.29167"
   version="1.1"
   id="svg2584"
   sodipodi:docname="logo-white.svg"
   inkscape:export-filename="logo-green.png"
   inkscape:export-xdpi="96"
   inkscape:export-ydpi="96"
   inkscape:version="1.2.1 (9c6d41e410, 2022-07-14)"
   xmlns:inkscape="http://www.inkscape.org/namespaces/inkscape"
   xmlns:sodipodi="http://sodipodi.sourceforge.net/DTD/sodipodi-0.dtd"
   xmlns="http://www.w3.org/2000/svg"
   xmlns:svg="http://www.w3.org/2000/svg">
  <sodipodi:namedview
     id="namedview2586"
     pagecolor="#ffffff"
     bordercolor="#000000"
     borderopacity="0.25"
     inkscape:showpageshadow="2"
     inkscape:pageopacity="0.0"
     inkscape:pagecheckerboard="0"
     inkscape:deskcolor="#d1d1d1"
     inkscape:document-units="mm"
     showgrid="false"
     inkscape:zoom="0.73851712"
     inkscape:cx="81.920917"
     inkscape:cy="300.60237"
     inkscape:window-width="1920"
     inkscape:window-height="1009"
     inkscape:window-x="1912"
     inkscape:window-y="-8"
     inkscape:window-maximized="1"
     inkscape:current-layer="layer1" />
  <defs
     id="defs2581" />
  <g
     inkscape:label="Layer 1"
     inkscape:groupmode="layer"
     id="layer1">
    <path
       id="path1013"
       style="fill:#ffffff;stroke-width:36.2484"
       d="M 66.09046,0.78346073 A 65.495454,65.495454 0 0 0 0.59610023,66.27948 65.495454,65.495454 0 0 0 66.09046,131.77384 65.495454,65.495454 0 0 0 131.58647,66.27948 65.495454,65.495454 0 0 0 66.09046,0.78346073 Z M 44.686357,23.469612 H 87.494565 L 108.89867,44.875377 V 87.683581 L 87.494565,109.08769 H 44.686357 L 23.282256,87.683581 V 44.875377 Z m 6.95733,8.026541 4.06565,8.0282 h 20.762244 l 3.960891,-8.0282 z m -5.138178,1.499881 -13.590408,13.59041 8.774816,4.388239 9.203831,-9.203832 z m 39.277989,0.106413 -4.388239,8.774817 9.203826,9.203832 8.774819,-4.386578 z M 55.388411,44.875367 44.686357,55.577421 v 21.404101 l 10.702054,10.702051 h 21.4041 L 87.494565,76.981522 V 55.577421 L 76.792511,44.875367 Z m -24.079617,6.955671 v 28.895203 l 8.026539,-4.06565 V 55.898349 Z m 69.563326,0 -8.026529,4.067311 v 20.762242 l 8.026529,3.959229 z m -59.288626,29.645145 -8.77648,4.38824 13.592072,13.590409 4.38824,-8.774819 z m 48.907504,0.106413 -9.203825,9.20383 4.38824,8.776479 13.592079,-13.59207 z m -34.781661,11.451994 -4.06565,8.02654 h 28.895206 l -4.067312,-8.02654 z" />
  </g>
</svg>
