<svg id="Layer_1" data-name="Layer 1" xmlns="http://www.w3.org/2000/svg" viewBox="0 0 400 300" width="406" height="306" class="illustration styles_illustrationTablet__1DWOa"><title>#116_team meeting_twocolour</title><ellipse cx="202.86" cy="258.95" rx="170.5" ry="13.38" fill="#e6e6e6" opacity="0.45"></ellipse><path d="M108.06,244s.06,3.94,3.13,5.3,2.84,4.74-.28,4.57-9.22-6.37-9.22-6.37L104,241.8Z" fill="#68e1fd"></path><path d="M96,202.62s18.35.81,16.35,13.26-10.1,25.92-10.1,25.92l7.06,2.95s14-16.08,15.37-35.92S97.92,193.42,96,202.62Z" fill="#24285b"></path><path d="M96,202.62s18.35.81,16.35,13.26-10.1,25.92-10.1,25.92l7.06,2.95s14-16.08,15.37-35.92S97.92,193.42,96,202.62Z" opacity="0.08"></path><path d="M83.31,127.32c-6.66-5.15-16.68-2.51-19.47,5.44a12,12,0,0,0-.07,7.65c3.17,10.17,8.17,24,26.83,29s34.34,8.74,35.84,2.19-2.67-14.88-18-20C97.53,147.9,91.78,133.86,83.31,127.32Z" fill="#68e1fd"></path><path d="M83.31,127.32c-6.66-5.15-16.68-2.51-19.47,5.44a12,12,0,0,0-.07,7.65c3.17,10.17,8.17,24,26.83,29s34.34,8.74,35.84,2.19-2.67-14.88-18-20C97.53,147.9,91.78,133.86,83.31,127.32Z" opacity="0.08"></path><path d="M122.81,244.86s0,3.94,3.13,5.3,2.84,4.74-.29,4.57-9.21-6.37-9.21-6.37l2.26-5.71Z" fill="#68e1fd"></path><path d="M315.75,177.77,284.53,154.7s-9.81-7-11.4-1,9.7,7,9.7,7,19.1,30.55,28.68,26.91S315.75,177.77,315.75,177.77Z" fill="#f4a28c"></path><path d="M315.75,177.77,284.53,154.7s-9.81-7-11.4-1,9.7,7,9.7,7,19.1,30.55,28.68,26.91S315.75,177.77,315.75,177.77Z" opacity="0.08"></path><polygon points="286.17 214.56 313.99 244.85 317.83 243.19 296.84 205.9 286.17 214.56" fill="#f4a28c"></polygon><path d="M313.48,244.08s0,3.77-2.5,5.48-.22,5.32,3.32,2a26.07,26.07,0,0,0,3-3.3,7.82,7.82,0,0,1,3.3-2.36,1.29,1.29,0,0,0,.75-1.27c.11-2.1-4.8-3-4.8-3Z" fill="#68e1fd"></path><path d="M304.19,187.54s-38.85-.29-33.22,22.71A45.77,45.77,0,0,0,295.36,241l14-25.67L301.66,193Z" fill="#24285b"></path><path d="M304.19,187.54s-38.85-.29-33.22,22.71A45.77,45.77,0,0,0,295.36,241l14-25.67L301.66,193Z" opacity="0.08"></path><rect x="321.93" y="208.17" width="4.14" height="35.71" fill="#c9c9c9"></rect><path d="M337.72,121.61s3.81-20.42,22.14-11.18c13.51,6.81.31,61.12-7.56,89.21a22.89,22.89,0,0,1-22.05,16.69H304.4c-7.91,0-9.32-11.27-1.66-13.22l.45-.11c4.46-1,9.69-1.84,14.45-2.47A17.67,17.67,0,0,0,333,184.36Z" fill="#e6e6e6"></path><path d="M319.35,102.22a25.78,25.78,0,0,0,.85,6.78,2.07,2.07,0,0,0,2.63,1.29,4.57,4.57,0,0,0,3.29-3.7l.95-3.67a3.69,3.69,0,0,0-1.92-3.81C322.71,97.63,319.25,99.72,319.35,102.22Z" fill="#f4a28c"></path><polygon points="327.68 105.09 328.84 118.51 321.4 118.63 323.49 109.06 327.68 105.09" fill="#f4a28c"></polygon><path d="M319.46,104.81l-1,1.67a.66.66,0,0,0,.49,1l1.59.17Z" fill="#f4a28c"></path><path d="M323.43,109.33a5,5,0,0,0,2.4-1.19s.53,2.9-3,3.93Z" fill="#ce8172" opacity="0.31"></path><polygon points="279.64 208.17 279.64 249.29 283.6 250.66 293.36 209 279.64 208.17" fill="#f4a28c"></polygon><path d="M279.79,248.38s-2.59,2.75-5.55,2.35-3.77,3.77,1.06,3.75a26.82,26.82,0,0,0,4.48-.38,7.81,7.81,0,0,1,4,.49,1.31,1.31,0,0,0,1.42-.42c1.49-1.48-1.53-5.45-1.53-5.45Z" fill="#68e1fd"></path><path d="M327.4,105.13s-.1-1.58,1.1-1.55,1.34,2.31-.26,2.65Z" fill="#f4a28c"></path><path d="M320.19,102a12.3,12.3,0,0,0,3.95,0s.84,4.56,4.46,5.71c0,0,3.43-6.82-.78-9.46-3.52-2.21-6.15-4.17-9.05-1.54A3.08,3.08,0,0,0,320.19,102Z" fill="#24285b"></path><circle cx="330.17" cy="96.27" r="4.09" fill="#24285b"></circle><path d="M324.07,104.36s.18-1.83,1.64-1.54,1.44,2.42-.4,3.26Z" fill="#f4a28c"></path><path d="M320.88,120.76l7.27-2.09s19.41,2.09,19.21,17.66c-.15,11.54-13.62,54.67-13.62,54.67H304.19V175.81a44.31,44.31,0,0,0-4.91-20.68C294.71,146.47,292.32,131.4,320.88,120.76Z" fill="#68e1fd"></path><path d="M315.38,139.27c1.19-13.68,20.55-15.38,24.29-2.17,2,7,3,17.1.7,31.31-5.51,34.26-71.51,12-71.51,12v-8.12s39,7.34,48.37-2.66C322.74,163.77,314.42,150.34,315.38,139.27Z" fill="#68e1fd"></path><path d="M304.19,183.9l29.55,7.1s1.43,12.75-8.85,13.75-41.78-2.5-29.53,36.25H271s-14.81-41.64,21.39-50c4.39-1,11.75-1.84,11.82-6.35Z" fill="#24285b"></path><path d="M172,108.51a42.53,42.53,0,0,0-20.47,34.22c-1.26,22.7.8,47.05,29.57,44.32S172,108.51,172,108.51Z" fill="#68e1fd"></path><path d="M172,108.51a42.53,42.53,0,0,0-20.47,34.22c-1.26,22.7.8,47.05,29.57,44.32S172,108.51,172,108.51Z" opacity="0.08"></path><path d="M189.45,84.77a30,30,0,0,0,0,8,2.41,2.41,0,0,0,2.86,1.86,5.32,5.32,0,0,0,4.33-3.81l1.62-4.13A4.3,4.3,0,0,0,196.61,82C194,79.92,189.69,81.86,189.45,84.77Z" fill="#f4a28c"></path><polygon points="198.01 87.41 199.79 103.02 191.12 103.39 193.3 91.88 198.01 87.41" fill="#f4a28c"></polygon><path d="M189.21,87.79l-1.41,1.78a.77.77,0,0,0,.43,1.23l1.81.42Z" fill="#f4a28c"></path><path d="M192.72,94.38a5.62,5.62,0,0,0,2.87-1.55s-.25,2.87-3.52,5.56Z" fill="#ce8172" opacity="0.31"></path><path d="M181.49,104.76s37.19-8.33,50.51-.86-12.82,77.85-12.82,77.85l-41.07-1.3S142.18,111.91,181.49,104.76Z" fill="#68e1fd"></path><path d="M189.8,247.84s-1.92,3.45-5.27,3.19-4.74,2.83-1.91,4.16,11.13-1.25,11.13-1.25l.71-6.1Z" fill="#68e1fd"></path><path d="M219.88,247.08s1.36,3.7,4.72,3.95,4.25,3.53,1.25,4.41S215,252.5,215,252.5l.23-6.13Z" fill="#68e1fd"></path><path d="M213.78,110.43S202,118,208,135.42s6.95,29.86-7.16,25.5-13.08-23.83-13.08-23.83l-14.39,2.23L172,166.94l6.11,13.51,35.67-2.24,14.54-3.71,5.42-18.22-9.87-30.87Z" opacity="0.08"></path><path d="M178.11,180.45l10.51,67.39h6.86s-6.36-50.68,4.75-56.8,13.29,56.8,13.29,56.8l7.29-.58-.09-69.48Z" fill="#24285b"></path><path d="M221,101.69s23.14-3.9,23.14,32.51-5.56,68.81-59,36.34l4.06-6.2S218,177,224.15,165.88,200.12,107.86,221,101.69Z" fill="#68e1fd"></path><path d="M221,101.69s23.14-3.9,23.14,32.51-5.56,68.81-59,36.34l4.06-6.2S218,177,224.15,165.88,200.12,107.86,221,101.69Z" fill="#fff" opacity="0.46"></path><rect x="162.53" y="136.08" width="20.2" height="30.23" transform="translate(-31.67 46.68) rotate(-14.12)" fill="#ffd200"></rect><path d="M189.27,164.34s-9.64-7.64-11.16-1.8,8.49,5.87,8.49,5.87Z" fill="#f4a28c"></path><ellipse cx="236.42" cy="50.53" rx="23.71" ry="19.73" fill="#24285b"></ellipse><polygon points="219.88 59.54 211.44 73.9 225.34 63.59 219.88 59.54" fill="#24285b"></polygon><circle cx="227.08" cy="50.53" r="2.93" fill="#fff"></circle><circle cx="236.47" cy="50.53" r="2.93" fill="#fff"></circle><circle cx="245.76" cy="50.53" r="2.93" fill="#fff"></circle><path d="M190.38,85a9.36,9.36,0,0,0,1.08.29,7.43,7.43,0,0,1,1.51.5l.39.17a1.53,1.53,0,0,1,.92,1.42c0,1.53.48,4.34,4.18,4.66,0,0,3.76-5.64.75-10a9.94,9.94,0,0,0-7.58-4C187.6,77.9,186.55,83.71,190.38,85Z" fill="#24285b"></path><rect x="81.73" y="208.17" width="4.14" height="35.71" transform="translate(167.61 452.04) rotate(-180)" fill="#c9c9c9"></rect><path d="M70.09,121.61S66.28,101.19,48,110.43c-13.51,6.81-.31,61.12,7.56,89.21a22.89,22.89,0,0,0,22.05,16.69h25.85c7.91,0,9.32-11.27,1.66-13.22l-.45-.11c-4.46-1-9.69-1.84-14.45-2.47a17.67,17.67,0,0,1-15.33-16.17Z" fill="#e6e6e6"></path><polygon points="85.88 243.88 100.7 255.57 67.7 255.57 81.73 243.88 85.88 243.88" fill="#c9c9c9"></polygon><path d="M83.47,94.88a29.66,29.66,0,0,1,.55,7.84,2.37,2.37,0,0,1-2.68,2,5.27,5.27,0,0,1-4.54-3.44l-1.89-3.93a4.24,4.24,0,0,1,1.33-4.73C78.66,90.45,83,92,83.47,94.88Z" fill="#f4a28c"></path><polygon points="75.25 98.1 74.64 113.58 83.19 113.31 80.21 102.16 75.25 98.1" fill="#f4a28c"></polygon><path d="M82.33,95.22A19.06,19.06,0,0,1,78,95.4a3.93,3.93,0,0,1,.51,4.29,3.21,3.21,0,0,1-3.7,1.73l-.63-6a4.8,4.8,0,0,1,1.91-4.55A17.59,17.59,0,0,1,78,89.61c1.65-.91,4.34,0,5.75-1.41a1.15,1.15,0,0,1,1.89.53c.49,1.81.5,4.73-1.86,6A4.61,4.61,0,0,1,82.33,95.22Z" fill="#24285b"></path><path d="M79,99.49s-.25-1.8-1.59-1.5-1,2.91.88,2.93Z" fill="#f4a28c"></path><path d="M83.93,97.83l1.52,1.65a.76.76,0,0,1-.33,1.24l-1.75.55Z" fill="#f4a28c"></path><path d="M81,104.57A5.6,5.6,0,0,1,78,103.26s.46,2.8,3.88,5.21Z" fill="#ce8172" opacity="0.31"></path><path d="M74.64,113.58l8.55-.27s18.77,4,23.37,27.83S98,186.28,98,186.28l-27,.24S35.2,117.61,74.64,113.58Z" fill="#68e1fd"></path><path d="M71,186.52s.36,15.48,10.84,16.81,34.48-6.73,37.48,6.34-3,33.85-3,33.85l7.31,2s16.42-31.42,6.75-46.32-32.35-13-32.35-13Z" fill="#24285b"></path><path d="M68,130.76s-6.86,19.17,5,29.58S91.67,172,85.65,186.52L98,186.28s6.49-11.8,7.8-20.16S68,130.76,68,130.76Z" opacity="0.08"></path><path d="M88.14,121.33c-6.66-5.15-16.68-2.51-19.47,5.44a12,12,0,0,0-.07,7.65c3.17,10.17,8.17,24,26.84,29s34.33,8.74,35.83,2.2-2.67-14.88-18-20C102.37,141.91,96.61,127.87,88.14,121.33Z" fill="#68e1fd"></path><path d="M88.14,121.33c-6.66-5.15-16.68-2.51-19.47,5.44a12,12,0,0,0-.07,7.65c3.17,10.17,8.17,24,26.84,29s34.33,8.74,35.83,2.2-2.67-14.88-18-20C102.37,141.91,96.61,127.87,88.14,121.33Z" fill="#fff" opacity="0.46"></path><path d="M110.13,144.18s5.17-3.82,9.17,0S115.38,153.49,110.13,144.18Z" fill="#f4a28c"></path><path d="M318.83,131.62s-14.41,5.21-9.47,22.71-5.18,20.17-5.18,20.17l13.05,12.76L333.74,191l5.17-17.41Z" opacity="0.08"></path><rect x="128.56" y="188.74" width="6.72" height="67.26" fill="#a5a5a5"></rect><rect x="267.61" y="188.74" width="6.72" height="67.26" fill="#a5a5a5"></rect><rect x="121.78" y="178.2" width="158.76" height="17.71" fill="#e6e6e6"></rect><path d="M194.36,90a1.2,1.2,0,0,1-.17-1.18c.27-.65.8-1.5,1.67-1.37s1.06,1.56.45,2.51a1.2,1.2,0,0,1-1.95,0Z" fill="#f4a28c"></path><path d="M315.38,139.27c1.19-13.68,20.55-15.38,24.29-2.17,2,7,3,17.1.7,31.31-5.51,34.26-71.51,12-71.51,12v-8.12s39,7.34,48.37-2.66C322.74,163.77,314.42,150.34,315.38,139.27Z" fill="#f4a28c"></path><polygon points="233.78 178.2 225.23 146.33 229.38 145.44 237.44 173.33 260.77 175.33 260.77 178.2 233.78 178.2" fill="#ffd200"></polygon><path d="M268.86,172.33s-8.56-4.16-11.25-.83.42,8.33,11.25,8.95Z" fill="#f4a28c"></path><rect x="267.61" y="170.88" width="3.87" height="10.88" transform="translate(18.84 -25.89) rotate(5.7)" fill="#68e1fd"></rect><polygon points="321.93 243.88 307.11 255.57 340.11 255.57 326.08 243.88 321.93 243.88" fill="#c9c9c9"></polygon><path d="M317.23,122.21a4.76,4.76,0,0,1,2.77-5.38c3.69-1.83,12.44-4,13.74,3.14C333.74,120,325.61,125.26,317.23,122.21Z" fill="#68e1fd"></path><path d="M317.23,122.21a4.76,4.76,0,0,1,2.77-5.38c3.69-1.83,12.44-4,13.74,3.14C333.74,120,325.61,125.26,317.23,122.21Z" fill="#fff" opacity="0.46"></path></svg>
