<svg id="Layer_1" data-name="Layer 1" xmlns="http://www.w3.org/2000/svg" viewBox="0 0 400 300" width="406" height="306" class="illustration styles_illustrationTablet__1DWOa"><title>_</title><path d="M107.22,60.25C73.29,69.42,46.5,90.91,42.27,130.46c-3.56,33.33,1.47,92.18,58.61,101.82C212.07,251,303,257.15,343.9,205.86c25.28-31.69,33.09-120.41-29.8-142C271.45,49.27,180,40.59,107.22,60.25Z" fill="#e6e6e6" opacity="0.3"></path><rect x="77.75" y="76.08" width="240.2" height="126.94" fill="#e6e6e6"></rect><g opacity="0.12"><rect x="293.17" y="128.51" width="12.29" height="21.97" transform="translate(598.62 278.99) rotate(-180)"></rect><rect x="273.14" y="120.48" width="12.29" height="30" transform="translate(558.56 270.96) rotate(-180)"></rect><rect x="253.11" y="107.61" width="12.29" height="42.88" transform="translate(518.5 258.09) rotate(-180)"></rect><rect x="233.08" y="95.9" width="12.29" height="54.58" transform="translate(478.44 246.38) rotate(-180)"></rect></g><path d="M104.81,177.34V158s9.55,11.78,13.77,10.89,10.89-16,15.55-17.11,5.11,8,9.34,6.67,19.55-27.33,25.77-27.78,10.89,14.44,16.88,12,23.11-33.77,31.55-38.21v72.87Z" opacity="0.08"></path><g opacity="0.08"><polygon points="225.45 184.12 98.92 184.12 98.92 87.47 100.92 87.47 100.92 182.12 225.45 182.12 225.45 184.12"></polygon></g><path d="M318,138.51V203H281.51c-1.07-9.45-13.86-12.09-32.18-13.6-20.71-1.72-20.47-38.52-23.29-48.34s5.69-8.82,5.69-8.82,6,28.43,19.24,35.35,11.29-8,15.29-28.5,34-13.64,34-13.64l1.34-12s-5.23-4.7-5.29-11.3,3-6.3,3-6.3l7.8,3.52,1.77,12.84Z" opacity="0.08"></path><path d="M236.17,138.1s.49-8.06-4.68-10.08,0,12.64,0,12.64Z" fill="#f4a28c"></path><path d="M295.88,127.73a10,10,0,0,0-15-.13,39.54,39.54,0,0,0-10.25,26c-.67,22.31-16.43,20.1-32.81-16.42l-7.93,4.33s21.7,72.14,54.85,31.23C305,147.85,301.59,134.43,295.88,127.73Z" fill="#68e1fd"></path><path d="M292.45,124.57a7.07,7.07,0,0,0-8.94.44,39.31,39.31,0,0,0-12.86,28.6c-.67,22.31-16.43,20.1-32.81-16.42l-7.93,4.33s21.7,72.14,54.85,31.23C308.85,143,299.41,129.66,292.45,124.57Z" opacity="0.08"></path><path d="M302.28,99.89a32.49,32.49,0,0,0,0,8.73,2.64,2.64,0,0,0,3.13,2,5.82,5.82,0,0,0,4.75-4.18L312,102a4.71,4.71,0,0,0-1.85-5.12C307.25,94.58,302.54,96.7,302.28,99.89Z" fill="#f4a28c"></path><polygon points="311.65 102.78 313.6 119.89 304.1 120.29 306.49 107.68 311.65 102.78" fill="#f4a28c"></polygon><path d="M303.57,100.17a21.18,21.18,0,0,0,4.85-.16,4.37,4.37,0,0,0-.21,4.8,3.56,3.56,0,0,0,4.24,1.61l.22-6.74a5.36,5.36,0,0,0-2.5-4.89,18.63,18.63,0,0,0-2.21-1.2c-1.9-.86-4.8.31-6.49-1.08a1.26,1.26,0,0,0-2,.74c-.39,2-.17,5.28,2.56,6.53A5.23,5.23,0,0,0,303.57,100.17Z" fill="#24285b"></path><path d="M307.66,104.63s.12-2,1.64-1.8,1.34,3.15-.74,3.33Z" fill="#f4a28c"></path><path d="M302,103.2l-1.55,2a.84.84,0,0,0,.47,1.34l2,.47Z" fill="#f4a28c"></path><path d="M305.85,110.42a6.21,6.21,0,0,0,3.15-1.7s-.27,3.14-3.86,6.1Z" fill="#ce8172" opacity="0.31"></path><path d="M294.29,120.09s35.31-7.91,48-.81-12.18,73.92-12.18,73.92l-39-1.24S257,126.88,294.29,120.09Z" fill="#68e1fd"></path><path d="M325,125.47s-11.15,7.23-5.48,23.74,6.61,28.34-6.79,24.2-12.42-22.62-12.42-22.62L286.6,152.9l-1.32,26.23,5.8,12.83L325,189.83l13.8-3.52L343.9,169l-9.37-29.31Z" opacity="0.08"></path><path d="M305.88,226.07c.18-11.06,1.63-21.53,6.2-24,5.18-2.86,8.32,10.11,10.17,24h9.34l0-36.65L291.08,192l5.32,34.11Z" fill="#24285b"></path><path d="M331.83,117.17s22-3.69,22,30.87-5.28,65.34-56,34.5l3.86-5.88s27.3,12,33.11,1.46S312,123,331.83,117.17Z" fill="#68e1fd"></path><path d="M331.83,117.17s22-3.69,22,30.87-5.28,65.34-56,34.5l3.86-5.88s27.3,12,33.11,1.46S312,123,331.83,117.17Z" fill="#fff" opacity="0.46"></path><rect x="276.29" y="149.83" width="19.18" height="28.71" transform="translate(-31.42 74.71) rotate(-14.12)" fill="#ffd200"></rect><path d="M301.68,176.66s-9.15-7.25-10.6-1.71,8.06,5.58,8.06,5.58Z" fill="#f4a28c"></path><rect x="164.46" y="95.91" width="22.27" height="3.75" opacity="0.08"></rect><rect x="164.46" y="105.8" width="22.27" height="3.75" opacity="0.08"></rect><rect x="150.96" y="95.91" width="6.57" height="3.75" fill="#fff" opacity="0.46"></rect><rect x="150.96" y="105.8" width="6.57" height="3.75" fill="#ffd200"></rect><path d="M142.93,104.47a14.49,14.49,0,1,1-.31-2.94h0c.08.38.14.78.2,1.17A14.5,14.5,0,0,1,142.93,104.47Z" fill="#fff" opacity="0.46"></path><path d="M128.48,90v14.45l14.15-2.94S140.65,89.93,128.48,90Z" fill="#ffd200"></path><path d="M142.93,104.47a14.45,14.45,0,0,1-22.48,12l8-12,14.14-2.94c.08.38.14.78.2,1.17A14.5,14.5,0,0,1,142.93,104.47Z" opacity="0.1"></path><path d="M129.25,128.2c.43,0,.56.14.56.57v.92a4.16,4.16,0,0,1,3.45,2.57c.23.45.14.69-.37.92l-.91.42c-.43.2-.63.11-.88-.33a2.35,2.35,0,0,0-2.4-1.43c-1.59,0-2.31.49-2.3,1.55a1.4,1.4,0,0,0,1.29,1.24,9,9,0,0,0,1.35.2,9,9,0,0,1,2.49.47,3.35,3.35,0,0,1,1.1.59,3.59,3.59,0,0,1,1,2.61c0,2-1.34,3.42-3.75,3.79v1c0,.42-.13.58-.56.58h-1c-.43,0-.58-.14-.58-.57v-.95a4.26,4.26,0,0,1-3.75-2.85.62.62,0,0,1,.42-.87l.92-.34c.46-.17.67-.06.88.41a2.44,2.44,0,0,0,2.53,1.55c1.72,0,2.57-.56,2.57-1.66a1.15,1.15,0,0,0-.82-1.15,6.08,6.08,0,0,0-1.85-.35,8.12,8.12,0,0,1-2.5-.52,3.62,3.62,0,0,1-1.09-.61,3.38,3.38,0,0,1-1-2.53c0-2,1.24-3.37,3.63-3.71v-.91c0-.43.14-.58.57-.58Z" opacity="0.08"></path><rect x="48.1" y="215.91" width="298.56" height="10.83" fill="#e6e6e6"></rect><rect x="48.1" y="226.24" width="298.56" height="24.54" fill="#c9c9c9"></rect><path d="M91.37,216.24s-10,25.71-33.66,34.53H211.17l-3.07-14.11L107.94,215.91Z" opacity="0.08"></path><path d="M120.83,170.11s16,12,22.82,28.83a13.76,13.76,0,0,1-12.61,19l-18.76.13Z" fill="#f4a28c"></path><polygon points="102.22 153.92 100.77 162.3 93.23 162.85 97.82 149.44 102.22 153.92" fill="#f4a28c"></polygon><path d="M99.58,141.53a5,5,0,0,1,8,2.71c1,3.84,1.73,9.46-2.73,9.92-6.81.7-8-8.09-8-8.09A9.19,9.19,0,0,1,99.58,141.53Z" fill="#f4a28c"></path><path d="M100.89,147.86s-.7-1.76-2.1-.55.47,3.16,1.56,2.75S100.89,147.86,100.89,147.86Z" fill="#f4a28c"></path><path d="M73.15,166.91s18.18-10.09,34.35-4.06c29.44,11,27.82,30.71,7.15,87.26l-27.11.15Z" fill="#68e1fd"></path><path d="M101,161.23s-1.75,4.31,1.26,16.83,18.61,54.49,18.61,54.49l-6.18,17.56h-9.87L74.47,166.24S88.18,159.13,101,161.23Z" opacity="0.08"></path><path d="M107.15,250.26s5.57-77.38-27.46-83.35-44,22.41-24.7,83.35Z" fill="#ffd200"></path><path d="M99.08,250.26s5.58-77.38-27.45-83.35-44,22.41-24.71,83.35Z" fill="#ffd200"></path><path d="M99.08,250.26s5.58-77.38-27.45-83.35-44,22.41-24.71,83.35Z" opacity="0.08"></path><path d="M91.52,158a11,11,0,0,0,1.73-10.17c-.83-2.62-.77-6,2.2-9.5,6.59-7.81,16-2.3,12.88,2.14s-4.83,6.45-4.83,6.45,11.37,12,5.44,19.24C103.67,172.61,82.13,169.87,91.52,158Z" fill="#24285b"></path><polygon points="194.15 153.92 192.7 162.3 185.16 162.85 189.75 149.44 194.15 153.92" fill="#f4a28c"></polygon><path d="M191.51,141.53a5,5,0,0,1,8,2.71c1,3.84,1.72,9.46-2.73,9.92-6.81.7-8-8.09-8-8.09A9.19,9.19,0,0,1,191.51,141.53Z" fill="#f4a28c"></path><path d="M192.82,147.86s-.7-1.76-2.1-.55.47,3.16,1.56,2.75S192.82,147.86,192.82,147.86Z" fill="#f4a28c"></path><path d="M194.52,146.39s-1.43,9-5.8,6.07-.09-4.87-.57-9.49,2-6.25,7.06-7.34c2.34-.5,3.77-.55,4.8-.92a2.82,2.82,0,0,1,3.85,2.83C203.49,141.1,201.4,145,194.52,146.39Z" fill="#24285b"></path><path d="M165.08,166.91s18.18-10.09,34.35-4.06c29.44,11,27.72,31.4,7,88L180,250.64Z" fill="#68e1fd"></path><path d="M193,161.62s-1.74,4.3,1.27,16.82,18.6,54.49,18.6,54.49l-6.18,17.57h-9.86l-30.32-83.88S180.18,159.51,193,161.62Z" opacity="0.08"></path><path d="M199.43,250.8s5.21-77.92-27.81-83.89-44,22.41-24.71,83.35Z" fill="#ffd200"></path><path d="M191,250.26s5.57-77.38-27.46-83.35-43.21,23.33-23.9,84.28Z" fill="#ffd200"></path><path d="M191,250.71s5.62-77.83-27.41-83.8-43.21,23.33-23.9,84.28Z" opacity="0.08"></path><path d="M196.76,182.49c.56-10.62,14.05-14.92,20.72-6.63,5.16,6.4,8.71,15.83,8.3,29.73a60.91,60.91,0,0,0,18.16,45.21H224.68s-16.36-19.34-25.25-49.87C197.19,193.23,196.51,187.2,196.76,182.49Z" fill="#68e1fd"></path></svg>
