<svg id="Layer_1" data-name="Layer 1" xmlns="http://www.w3.org/2000/svg" viewBox="0 0 400 300" width="406" height="306" class="illustration styles_illustrationTablet__1DWOa"><title>_</title><ellipse cx="199.51" cy="253.53" rx="134.06" ry="9.85" fill="#e6e6e6" opacity="0.45"></ellipse><path d="M206.35,43.21l-1.28,28c-3.73,7-4.81,8.16-6.14,8.41V88c3.29.8,6.21,1,7.93,0,6-3.6,10.14-21.89,10.14-21.89Z" fill="#68e1fd"></path><rect x="91.72" y="74.04" width="220.73" height="160.39" transform="translate(-0.38 0.5) rotate(-0.14)" fill="#f2f2f2"></rect><rect x="91.51" y="74.04" width="220.81" height="31.58" fill="#e6e6e6"></rect><circle cx="111.32" cy="90.33" r="4" fill="#24285b"></circle><circle cx="123.22" cy="90.3" r="4" fill="#68e1fd"></circle><circle cx="134.43" cy="90.27" r="4" fill="#ffd200"></circle><rect x="192.42" y="181.71" width="94.63" height="5.89" fill="#e6e6e6"></rect><rect x="192.42" y="197.31" width="94.63" height="5.89" fill="#e6e6e6"></rect><rect x="192.42" y="212.91" width="65.75" height="5.89" fill="#e6e6e6"></rect><rect x="192.42" y="116.79" width="92.18" height="55.2" fill="#e6e6e6"></rect><rect x="111.48" y="116.29" width="70.33" height="19.84" fill="#666" opacity="0.17"></rect><rect x="111.48" y="144.39" width="70.33" height="19.84" fill="#e6e6e6"></rect><circle cx="123.73" cy="154.4" r="7.14" fill="#666" opacity="0.17"></circle><rect x="136.25" y="149.96" width="28.37" height="3.14" fill="#666" opacity="0.17"></rect><rect x="136.25" y="156.24" width="17.78" height="3.14" fill="#666" opacity="0.17"></rect><rect x="111.48" y="172.5" width="70.33" height="19.84" fill="#e6e6e6"></rect><circle cx="123.73" cy="182.51" r="7.14" fill="#666" opacity="0.17"></circle><rect x="136.25" y="178.06" width="28.37" height="3.14" fill="#666" opacity="0.17"></rect><rect x="136.25" y="184.35" width="17.78" height="3.14" fill="#666" opacity="0.17"></rect><rect x="111.48" y="200.6" width="70.33" height="19.84" fill="#e6e6e6"></rect><circle cx="123.73" cy="210.61" r="7.14" fill="#666" opacity="0.17"></circle><rect x="136.25" y="206.17" width="28.37" height="3.14" fill="#666" opacity="0.17"></rect><rect x="136.25" y="212.45" width="17.78" height="3.14" fill="#666" opacity="0.17"></rect><path d="M115.32,234.64c.34,0-7.8-44.21-5.09-50.29s9.15-12,9-16.89,18.87-19.33,23-31.33l3.7,5.85,38.55-32.56s6.57-.94,8.71-5.71S215.36,74,215.36,74H204.64l-12.1,15.8-8.2-3.47-43.79,33-2.51,9.7s-31.32,22.47-41.66,34.34,3.45,71.26,3.45,71.26Z" opacity="0.08"></path><rect x="133.79" y="96.59" width="61.29" height="18.06" transform="translate(-29.57 129.18) rotate(-39.64)" fill="#24285b"></rect><circle cx="149.48" cy="118.12" r="6.5" fill="#ffd200"></circle><rect x="153.62" y="99.16" width="25.82" height="2.86" transform="translate(-25.88 129.36) rotate(-39.64)" fill="#fff" opacity="0.17"></rect><rect x="158.38" y="106.64" width="16.18" height="2.86" transform="translate(-30.67 131.04) rotate(-39.64)" fill="#fff" opacity="0.17"></rect><path d="M80.05,199.15,73.52,220A21.46,21.46,0,0,1,62.27,233l-9.6,4.56.39,2.84,14.34-3.1A25.25,25.25,0,0,0,83,224.08l10.13-20.86Z" fill="#f4a28c"></path><polygon points="101.69 205.03 104.75 249.75 101.9 250.74 90.55 208.91 101.69 205.03" fill="#f4a28c"></polygon><path d="M105.34,250.52S106,253.17,108,254s1,3.71-2,1.95a19.17,19.17,0,0,1-2.65-1.85,5.64,5.64,0,0,0-2.69-1.15,1,1,0,0,1-.73-.78c-.4-1.46,2.92-2.84,2.92-2.84Z" fill="#68e1fd"></path><path d="M53.06,240.37s-2,1.54-2,3.56-2.8,2.27-2.45-1a19,19,0,0,1,.56-3,5.2,5.2,0,0,0-.05-2.74.87.87,0,0,1,.39-.92c1.09-.9,3.55,1.4,3.55,1.4Z" fill="#68e1fd"></path><polygon points="84.57 140.22 85.64 144.52 82.15 146.36 81.54 139 84.57 140.22" fill="#f4a28c"></polygon><path d="M80.72,134.86a2.62,2.62,0,0,1,4.38-.38c1.29,1.62,2.8,4.15.77,5.3-3.11,1.76-5.51-2.18-5.51-2.18A4.73,4.73,0,0,1,80.72,134.86Z" fill="#f4a28c"></path><path d="M66.4,153.71s-15,23.47-12,26.93c9.54,11,30.72-13.74,30.72-13.74Z" fill="#f4a28c"></path><path d="M100.36,150.2a25.91,25.91,0,0,0-29.8-.53c-3.93,2.67-7,6.67-5.57,12.45,3.25,13.57,13.65,22.51,14,34.45l24.61-1.65V179.55a10.5,10.5,0,0,1,3.36-7.74c2.14-2,4.28-5.21,2.82-9.63C108.45,158.24,105.09,153.67,100.36,150.2Z" fill="#68e1fd"></path><path d="M82.67,137.6s-.7-.69-1.12.18.89,1.41,1.32,1S82.67,137.6,82.67,137.6Z" fill="#f4a28c"></path><path d="M88.18,156.6s-5.32,10.16.85,20.07-5.52,19.59-5.52,19.59l20.06-1.34v-8.76Z" opacity="0.08"></path><path d="M77.93,150.51c.47-1.84,2.66-5.18-.42-11.2a7.39,7.39,0,0,1,.06-6.33c2.93-4.94,7.65-3.25,7.09-.48s-1,4.09-1,4.09,8.94,6.41,7.63,11.13C90.18,151.92,75.94,158.17,77.93,150.51Z" fill="#24285b"></path><polygon points="77.88 190.29 103.57 190.29 107.66 225.84 69.55 224.12 77.88 190.29" fill="#24285b"></polygon><path d="M86.26,162.84A7.22,7.22,0,0,1,90,153.27a38,38,0,0,1,5.37-1.76c10.94-2.8,29.94-10.41,41.1-25.07,0,0,3.22-5.61,7.75-4.12s1.38,6.76-3.18,5.44c0,0-13.63,34.74-44.79,40.46a9.19,9.19,0,0,1-10-5.38Z" fill="#f4a28c"></path><polygon points="195.21 34.26 207.65 39.24 207.5 48.42 196.66 39.6 195.21 34.26" fill="#f4a28c"></polygon><path d="M198.3,41.05a4.84,4.84,0,0,0,0-2.78,7.65,7.65,0,0,1,2.75,4.9Z" fill="#ce8172" opacity="0.31"></path><path d="M191.22,38.82a25.25,25.25,0,0,0,5.5,4,2,2,0,0,0,2.72-1,4.52,4.52,0,0,0-.44-4.9l-2-3.19a3.65,3.65,0,0,0-4.07-1.19C190.16,33.25,189.33,37.18,191.22,38.82Z" fill="#f4a28c"></path><path d="M193.17,40.5l.52,1.87a.66.66,0,0,0,1.06.33l1.2-1Z" fill="#f4a28c"></path><path d="M200.48,36.05,196.68,32s1.2-2.91-1-3.2-1.73,1.48-3.72.29-3.4.15-3,2-.82.33-1.91,1.61-.71,2.06.35,2.77-1.37,2-.34,3.4,2.3,2.29,4.73-1.1S195.51,38.7,200.48,36.05Z" fill="#ffd200"></path><path d="M196.67,37.61s-1.21-1-.38-1.85,2.59.6,1.75,2Z" fill="#f4a28c"></path><path d="M240.17,76.31s-5.27,13.68.71,20.55,19.34,13.51,19.34,13.51,1.71,8,5.94.73l-.82-3.94-12.51-9.52-8-10.11,5.16-11Z" opacity="0.08"></path><path d="M257.31,59.27,250,68.63h0L245.11,75a45.5,45.5,0,0,1-8.59.47c-8.48-.3-20.94-3-26.37-15.12a33.09,33.09,0,0,1-2.64-11.9l.14-9.17s13.7-10,26-1.66S257.31,59.27,257.31,59.27Z" fill="#68e1fd"></path><path d="M257.31,59.27S271,68.41,263.66,74.7a76.29,76.29,0,0,0-10.14,11,5.16,5.16,0,0,0,.41,6.77l10.18,10.37-1.77,4.75-15-9.51a12.51,12.51,0,0,1-5.14-14.56L245.11,75Z" fill="#24285b"></path><path d="M250,68.63,245.11,75s-3.57.24-8.59.47c-8.48-.3-20.94-3-26.37-15.12,4.4-6,10.19-11.66,12.91-12.28,0,0,5.1,14.39,12.72,16.78,7.44,2.34,13.94,3.75,14.25,3.82Z" opacity="0.08"></path><path d="M223.5,50.61c1-8.42-9.87-12.66-15.08-6A19.75,19.75,0,0,0,205,51.25c-2.66,9-19.25,45.66-19.25,45.66l5.63,2.75s21.09-26.36,29.3-40.87A22,22,0,0,0,223.5,50.61Z" fill="#68e1fd"></path><path d="M223.5,50.61c1-8.42-9.87-12.66-15.08-6A19.75,19.75,0,0,0,205,51.25c-2.66,9-19.25,45.66-19.25,45.66l5.63,2.75s21.09-26.36,29.3-40.87A22,22,0,0,0,223.5,50.61Z" fill="#fff" opacity="0.36"></path><path d="M186.64,97.36s-6.21,3.5-2.72,5.81,7.42-3.51,7.42-3.51Z" fill="#f4a28c"></path><path d="M262.76,106.41s2.89,3,1.87,4.94c0,0,2,2.13,3.56-.67s-1.16-6-1.16-6l-3.23-1.1Z" fill="#68e1fd"></path><path d="M288.73,206.33q-3,7.78-5.41,15.76c-.32,1.06-1.69,7.6-2.84,11.93h13.33a56.19,56.19,0,0,1,10.41-27.94c.13,9.66.49,20,5.94,27.94h6.09a9.08,9.08,0,0,0,2.12-5.25,27.57,27.57,0,0,0-.93-7.85,122,122,0,0,1-2.54-24.19c0-10.23,1.19-20.48.31-30.68-.53-6.05-2-12.49-6.63-16.48a4.81,4.81,0,0,0-.62-.47c.46-3.6.69-7.24.9-10.85l.64-10.52c.22-3.57-1.79-9.38-5.91-5.37-3.36,3.26-2.19,7-3,10.89-1.28,6.08-8.81,5.29-13.56,5.08-15-.67-30.16-.29-45.22-.29H206.42v65.47h83.47C289.49,204.45,289.09,205.39,288.73,206.33Z" opacity="0.08"></path><path d="M285.24,247.57s-2.21,2.18-4.6,1.15-4.13,1-2.37,2.73,8.42,1.79,8.42,1.79l1.95-4.51Z" fill="#68e1fd"></path><path d="M322.35,246.56s1.08,3-.72,4.92-.68,4.4,1.5,3.34,4.75-7.54,4.75-7.54l-3.23-3.6Z" fill="#68e1fd"></path><path d="M328.26,190.73s2.33,9.7-1.72,14.47-10.25,27.37,0,38.67l-4.05,4s-17.75-9.54-12.69-43.94l-12.68-13.21Z" fill="#24285b"></path><path d="M297.12,190.73l-13,57.15,6.51,1s13-39.17,21.61-47.21Z" fill="#24285b"></path><path d="M294.1,140.48s-13.58,5.79-11.5,27l13.26-1.13Z" fill="#68e1fd"></path><path d="M294.1,140.48s-13.58,5.79-11.5,27l13.26-1.13Z" fill="#fff" opacity="0.36"></path><polygon points="313.17 124.6 312.65 138.38 305.08 137.55 308.49 127.86 313.17 124.6" fill="#f4a28c"></polygon><path d="M307.66,130a5,5,0,0,0,2.7-1,7.9,7.9,0,0,1-3.8,4.36Z" fill="#ce8172" opacity="0.31"></path><path d="M312,135.59l-4.42.92s-20.24,2.18-21.06,13.6,10.61,40.62,10.61,40.62h30.67S352.35,132.57,312,135.59Z" fill="#68e1fd"></path><path d="M305.7,122.58a26,26,0,0,0-.62,7,2.12,2.12,0,0,0,2.34,1.87,4.67,4.67,0,0,0,4.1-3l1.75-3.47a3.79,3.79,0,0,0-1.09-4.23C310.06,118.72,306.14,120.05,305.7,122.58Z" fill="#f4a28c"></path><path d="M321,140.91S310.55,147,313,160.79s6.48,18.53-2.17,16.61-12.21-6.27-12.21-6.27-6.23,5.08,0,8.93,14.68,3.85,16,10.67h13.16s1.06-3,2.47-6.75S321,140.91,321,140.91Z" opacity="0.09"></path><path d="M306.71,122.9a16.81,16.81,0,0,0,3.88.24,3.51,3.51,0,0,0-.53,3.81,2.85,2.85,0,0,0,3.26,1.6l.68-5.36a4.26,4.26,0,0,0-1.63-4.08,16.66,16.66,0,0,0-1.66-1.13,5.09,5.09,0,0,0-5.27.19,2.9,2.9,0,0,0-.35,4.06A3,3,0,0,0,306.71,122.9Z" fill="#24285b"></path><path d="M309.63,126.77s.26-1.61,1.45-1.31.83,2.6-.84,2.59Z" fill="#f4a28c"></path><rect x="212.3" y="131.68" width="88.95" height="65.14" fill="#ffd200"></rect><rect x="219.65" y="137.75" width="74.26" height="53" fill="#fff" opacity="0.43"></rect><polygon points="220.5 190.75 240.71 153.38 257.87 182.36 273.31 164.25 293.9 190.75 220.5 190.75" fill="#fff" opacity="0.49"></polygon><circle cx="259.25" cy="154.57" r="5.96" fill="#fff"></circle><path d="M337.22,165.28s1.73,17.71-7,18.7c-6.56.74-17.08-3-23.51-4.79-2.78-.8-4.13-1.17-6.27-3.12-2.56-2.34-6.12-4-3.36-6.23,4.91-4,8.4,2.81,8.4,2.81a54.18,54.18,0,0,0,12.59,2.1,5.14,5.14,0,0,0,5.11-6.47l-1.62-6.1S333.09,151.38,337.22,165.28Z" fill="#f4a28c"></path><path d="M305.24,125.2l-1.38,1.44a.68.68,0,0,0,.27,1.11l1.55.52Z" fill="#f4a28c"></path><path d="M328.19,139.53c4.49,3.47,11.32,11.13,11.19,25.61l-18.58,1.19s-5.37-15.9.24-25.42A4.84,4.84,0,0,1,328.19,139.53Z" fill="#68e1fd"></path><path d="M328.19,139.53c4.49,3.47,11.32,11.13,11.19,25.61l-18.58,1.19s-5.37-15.9.24-25.42A4.84,4.84,0,0,1,328.19,139.53Z" fill="#fff" opacity="0.36"></path><rect x="145.42" y="69.58" width="28" height="4.43" transform="translate(318.83 143.6) rotate(-180)" fill="#c9c9c9"></rect><rect x="145.42" y="65.13" width="21.18" height="4.43" transform="translate(312.01 134.7) rotate(-180)" fill="#e6e6e6"></rect><path d="M147.79,64.12s7.82-2.14,9.53-9.43c0,0-12.13-2.45-12.48,10.07Z" fill="#68e1fd" opacity="0.58"></path><path d="M146.83,63.34s5.46-8.65.65-16.73c0,0-9.22,5.86-5.12,16.75Z" fill="#68e1fd" opacity="0.73"></path><path d="M145.42,63.35s-2.89-9.13-11.63-10.86c0,0-1.63,5.92,5.66,10.88Z" fill="#68e1fd"></path><polygon points="151.09 63.14 149.51 74 139.51 74.04 138.04 63.19 151.09 63.14" fill="#24285b"></polygon></svg>
